<?xml version="1.0" encoding="utf-8" standalone="no"?>
<!DOCTYPE svg PUBLIC "-//W3C//DTD SVG 1.1//EN"
  "http://www.w3.org/Graphics/SVG/1.1/DTD/svg11.dtd">
<!-- Created with matplotlib (http://matplotlib.org/) -->
<svg height="288pt" version="1.1" viewBox="0 0 432 288" width="432pt" xmlns="http://www.w3.org/2000/svg" xmlns:xlink="http://www.w3.org/1999/xlink">
 <defs>
  <style type="text/css">
*{stroke-linecap:butt;stroke-linejoin:round;}
  </style>
 </defs>
 <g id="figure_1">
  <g id="patch_1">
   <path d="M 0 288 
L 432 288 
L 432 0 
L 0 0 
z
" style="fill:#ffffff;"/>
  </g>
  <g id="axes_1">
   <g id="patch_2">
    <path clip-path="url(#p1a6ae7573f)" d="M 69.218182 252 
L 99.654545 252 
L 99.654545 247.001379 
L 69.218182 247.001379 
z
" style="fill:#008000;stroke:#000000;stroke-linejoin:miter;"/>
   </g>
   <g id="patch_3">
    <path clip-path="url(#p1a6ae7573f)" d="M 99.654545 252 
L 130.090909 252 
L 130.090909 222.008276 
L 99.654545 222.008276 
z
" style="fill:#008000;stroke:#000000;stroke-linejoin:miter;"/>
   </g>
   <g id="patch_4">
    <path clip-path="url(#p1a6ae7573f)" d="M 130.090909 252 
L 160.527273 252 
L 160.527273 192.016552 
L 130.090909 192.016552 
z
" style="fill:#008000;stroke:#000000;stroke-linejoin:miter;"/>
   </g>
   <g id="patch_5">
    <path clip-path="url(#p1a6ae7573f)" d="M 160.527273 252 
L 190.963636 252 
L 190.963636 167.023448 
L 160.527273 167.023448 
z
" style="fill:#008000;stroke:#000000;stroke-linejoin:miter;"/>
   </g>
   <g id="patch_6">
    <path clip-path="url(#p1a6ae7573f)" d="M 190.963636 252 
L 221.4 252 
L 221.4 192.016552 
L 190.963636 192.016552 
z
" style="fill:#008000;stroke:#000000;stroke-linejoin:miter;"/>
   </g>
   <g id="patch_7">
    <path clip-path="url(#p1a6ae7573f)" d="M 221.4 252 
L 251.836364 252 
L 251.836364 202.013793 
L 221.4 202.013793 
z
" style="fill:#008000;stroke:#000000;stroke-linejoin:miter;"/>
   </g>
   <g id="patch_8">
    <path clip-path="url(#p1a6ae7573f)" d="M 251.836364 252 
L 282.272727 252 
L 282.272727 212.011034 
L 251.836364 212.011034 
z
" style="fill:#008000;stroke:#000000;stroke-linejoin:miter;"/>
   </g>
   <g id="patch_9">
    <path clip-path="url(#p1a6ae7573f)" d="M 282.272727 252 
L 312.709091 252 
L 312.709091 177.02069 
L 282.272727 177.02069 
z
" style="fill:#008000;stroke:#000000;stroke-linejoin:miter;"/>
   </g>
   <g id="patch_10">
    <path clip-path="url(#p1a6ae7573f)" d="M 312.709091 252 
L 343.145455 252 
L 343.145455 232.005517 
L 312.709091 232.005517 
z
" style="fill:#008000;stroke:#000000;stroke-linejoin:miter;"/>
   </g>
   <g id="patch_11">
    <path clip-path="url(#p1a6ae7573f)" d="M 343.145455 252 
L 373.581818 252 
L 373.581818 242.002759 
L 343.145455 242.002759 
z
" style="fill:#008000;stroke:#000000;stroke-linejoin:miter;"/>
   </g>
  </g>
 </g>
 <defs>
  <clipPath id="p1a6ae7573f">
   <rect height="217.44" width="334.8" x="54" y="34.56"/>
  </clipPath>
 </defs>
</svg>
